# generated from PmQm by Jehee Lee
:FULLY-SPECIFIED
:DEGREES
426
root 41.14218575 37.9969 28.3831719 161.9237957 -71.57013046 -160.5435074
RightUpLeg -28.6292827 4.189941569 5.388176891
RightLeg 20.12460226 0 0
RightFoot 5.245506143 4.810903864 -1.462036371
RightToes 2.32829e-010 -1.59028e-015 9.93923e-017
Spine -8.85864 -5.1147 2.15902
Spine1 13.2645 -6.98564 6.37604
HEad -10.1836 3.71447 -0.298579
LeftShoulder1 9.93923e-017 0 1.22299e-017
LeftArm 13.6046 27.8414 -82.5725
LeftForeArm -33.7381 -20.3283 4.26896
LeftHand 0.85281 5.94591 -1.68942
RightShoulder 1.98785e-016 -4.96962e-017 1.55301e-017
RightArm 4.79104 -57.8585 79.5258
RightForeArm -25.3247 15.0762 -0.454751
RightHand 1.12097 -10.7754 -3.21477
LeftUpLeg 6.161561081 -4.516325002 15.62606253
LeftLeg 40.07611326 0 0
LeftFoot 14.82526426 -3.661479191 -15.79859156
LeftToes 8.82235e-011 9.04645e-011 1.87288e-011
427
root 39.79034819 37.9889 27.87487941 158.920658 -70.25082284 -157.8007872
RightUpLeg -27.3933585 3.354371013 7.124849304
RightLeg 23.82414386 0 0
RightFoot 1.156147346 6.615956402 -2.542836495
RightToes 2.32829e-010 -1.59028e-015 9.93923e-017
Spine -7.82617 -4.18321 4.85693
Spine1 13.5892 -5.81217 5.89013
HEad -11.1141 2.29806 0.547046
LeftShoulder1 9.93923e-017 0 1.22299e-017
LeftArm 2.37092 30.3708 -83.2703
LeftForeArm -21.1373 -14.5294 -2.58577
LeftHand 0.879318 6.09409 -2.61043
RightShoulder 1.98785e-016 -4.96962e-017 1.55301e-017
RightArm 3.13328 -53.2422 81.7141
RightForeArm -23.927 14.2745 0.861444
RightHand 1.12761 -10.7757 -3.38363
LeftUpLeg 0.9966766076 -5.070116497 16.56984762
LeftLeg 49.33433214 1.393004677 4.846322211
LeftFoot 21.70518072 -2.605144079 -13.42014453
LeftToes 8.82235e-011 9.04645e-011 1.87288e-011
428
root 38.42925199 38.2368 27.35614498 159.0748516 -69.46602792 -158.2597711
RightUpLeg -24.88968797 3.832493539 7.487139252
RightLeg 24.60789299 0 0
RightFoot -1.387620197 7.061526794 -3.202776916
RightToes 2.32829e-010 -1.59028e-015 9.93923e-017
Spine -7.471 -3.38381 6.01816
Spine1 13.8059 -4.71277 5.16031
HEad -10.7382 0.819757 1.88153
LeftShoulder1 9.93923e-017 0 1.22299e-017
LeftArm -1.51826 33.0471 -83.3931
LeftForeArm -15.0812 -9.44565 -6.17775
LeftHand 0.93976 6.5249 -4.42647
RightShoulder 1.98785e-016 -4.96962e-017 1.55301e-017
RightArm 4.08717 -48.0352 83.6402
RightForeArm -24.1846 14.0368 1.48387
RightHand 1.15347 -10.7282 -4.27077
LeftUpLeg -4.591401113 -5.822635603 15.62742602
LeftLeg 56.28485978 1.631227398 9.277429855
LeftFoot 21.77004789 -2.99359982 -10.36705125
LeftToes 8.82235e-011 9.04645e-011 1.87288e-011
429
root 37.00959522 38.6402 26.78618558 161.5409438 -68.80802225 -161.061253
RightUpLeg -21.62533737 4.3036948 7.117403849
RightLeg 23.65024694 0 0
RightFoot -3.074789261 7.661652106 -3.219990997
RightToes 2.32829e-010 -1.59028e-015 9.93923e-017
Spine -7.67037 -2.51773 6.47335
Spine1 13.688 -3.46845 3.80072
HEad -9.14405 -0.707546 2.91489
LeftShoulder1 9.93923e-017 0 1.22299e-017
LeftArm 1.10318 36.3486 -82.924
LeftForeArm -14.1159 -7.68597 -7.38561
LeftHand 1.00284 7.13454 -6.18465
RightShoulder 1.98785e-016 -4.96962e-017 1.55301e-017
RightArm 7.34038 -43.5911 85.2189
RightForeArm -27.2352 15.2275 0.003924370001
RightHand 1.18297 -10.6363 -5.35387
LeftUpLeg -9.841681891 -6.625690992 13.41317217
LeftLeg 59.87630418 0.5814174956 11.78289602
LeftFoot 18.17437035 -3.650187442 -7.601691973
LeftToes 8.82235e-011 9.04645e-011 1.87288e-011
430
root 35.60559373 38.9605 26.18448692 164.657473 -67.73704079 -164.5578459
RightUpLeg -18.43325629 4.100980362 6.586128736
RightLeg 22.82618136 0 0
RightFoot -5.060874236 9.170800796 -2.901178603
RightToes 2.32829e-010 -1.59028e-015 9.93923e-017
Spine -7.83645 -1.43061 7.21708
Spine1 13.4939 -1.89804 1.99475
HEad -7.51557 -2.16027 3.22743
LeftShoulder1 9.93923e-017 0 1.22299e-017
LeftArm 3.31971 40.2464 -81.5602
LeftForeArm -12.7848 -8.16886 -7.155
LeftHand 1.03904 7.59664 -7.14162
RightShoulder 1.98785e-016 -4.96962e-017 1.55301e-017
RightArm 13.4859 -40.2862 86.3907
RightForeArm -35.0111 17.704 -4.95831
RightHand 1.18406 -10.5387 -5.75478
LeftUpLeg -14.42499663 -7.203501676 11.0639873
LeftLeg 60.54778749 -1.256974416 11.0887911
LeftFoot 14.78414484 -3.404200558 -7.040544091
LeftToes 8.82235e-011 9.04645e-011 1.87288e-011
431
root 34.24394891 39.1443 25.58440661 167.4416615 -66.15805194 -167.7397796
RightUpLeg -15.61672367 3.829448376 5.977195687
RightLeg 22.65406079 0 0
RightFoot -7.159513384 11.28625648 -2.987615207
RightToes 2.32829e-010 -1.59028e-015 9.93923e-017
Spine -7.68166 -0.17435 8.22232
Spine1 13.3304 -0.160738 0.328532
HEad -6.7365 -3.35321 3.01867
LeftShoulder1 9.93923e-017 0 1.22299e-017
LeftArm 5.60205 44.353 -79.4347
LeftForeArm -13.5077 -8.53464 -6.98397
LeftHand 1.03691 7.58639 -7.36546
RightShoulder 1.98785e-016 -4.96962e-017 1.55301e-017
RightArm 23.2456 -37.7105 87.0416
RightForeArm -47.9143 19.9529 -13.667
RightHand 1.16294 -10.4491 -5.53183
LeftUpLeg -18.32112755 -7.12536797 9.102827742
LeftLeg 58.81774216 -3.326486812 8.391359557
LeftFoot 12.07596862 -2.746796235 -7.54043645
LeftToes 8.82235e-011 9.04645e-011 1.87288e-011
432
root 32.89553513 39.2712 24.99407477 169.8202443 -64.14818174 -170.371839
RightUpLeg -13.0926722 3.707816216 5.323706765
RightLeg 22.58167468 0 0
RightFoot -9.049445549 13.78025652 -3.835046933
RightToes 2.32829e-010 -1.59028e-015 9.93923e-017
Spine -7.50668 1.16492 9.12466
Spine1 13.1693 1.53409 -1.02202
HEad -6.76522 -4.21988 2.61991
LeftShoulder1 9.93923e-017 0 1.22299e-017
LeftArm 7.35789 48.1467 -76.6541
LeftForeArm -14.7028 -10.3329 -5.82241
LeftHand 1.0147 7.29527 -7.40219
RightShoulder 1.98785e-016 -4.96962e-017 1.55301e-017
RightArm 27.874 -35.0547 86.6223
RightForeArm -54.4254 21.509 -20.8458
RightHand 1.13653 -10.2799 -5.47069
LeftUpLeg -21.61884224 -6.002958297 7.527258611
LeftLeg 54.6977692 -5.090300238 5.596679757
LeftFoot 8.462049479 -2.315508388 -7.496587157
LeftToes 8.82235e-011 9.04645e-011 1.87288e-011
433
root 31.56192056 39.3511 24.40001047 171.5235828 -61.90549285 -172.1555397
RightUpLeg -10.716916 3.510138564 4.82274525
RightLeg 22.40072794 0 0
RightFoot -11.11106067 16.31745149 -4.945780389
RightToes 2.32829e-010 -1.59028e-015 9.93923e-017
Spine -7.5167 2.4629 10.0566
Spine1 13.1436 3.04149 -2.25914
HEad -7.17577 -4.74753 2.14411
LeftShoulder1 9.93923e-017 0 1.22299e-017
LeftArm 9.71386 51.2335 -73.7732
LeftForeArm -17.2206 -12.4679 -4.32667
LeftHand 1.00603 7.18139 -7.52092
RightShoulder 1.98785e-016 -4.96962e-017 1.55301e-017
RightArm 23.4667 -31.7158 85.2526
RightForeArm -49.3998 24.6436 -22.8614
RightHand 1.11765 -10.0563 -5.86373
LeftUpLeg -24.19474743 -3.916229916 6.35060278
LeftLeg 47.96744778 -6.273333467 3.546757075
LeftFoot 4.92521851 -1.863591231 -7.611502211
LeftToes 8.82235e-011 9.04645e-011 1.87288e-011
434
root 30.25534655 39.3275 23.78178929 172.0450943 -59.82574878 -172.8012709
RightUpLeg -8.249166423 3.160830787 4.641354456
RightLeg 22.3829873 0 0
RightFoot -13.53277707 18.4320257 -5.712972297
RightToes 2.32829e-010 -1.59028e-015 9.93923e-017
Spine -7.50674 3.43618 11.2677
Spine1 13.3803 4.13737 -3.40054
HEad -7.70232 -4.95186 1.66868
LeftShoulder1 9.93923e-017 0 1.22299e-017
LeftArm 9.94681 53.4464 -71.1492
LeftForeArm -17.9221 -13.2168 -3.49391
LeftHand 1.0069 7.19274 -7.40753
RightShoulder 1.98785e-016 -4.96962e-017 1.55301e-017
RightArm 21.8119 -28.0745 84.0461
RightForeArm -46.3925 27.0863 -24.6167
RightHand 1.13036 -10.0345 -6.34538
LeftUpLeg -25.64494689 -1.728133107 5.56803622
LeftLeg 38.71867114 -6.954167923 2.140121896
LeftFoot 4.00154164 -1.099251469 -8.329047858
LeftToes 8.82235e-011 9.04645e-011 1.87288e-011
435
root 28.94964891 39.2265 23.13234847 171.7217008 -58.29828896 -172.7013575
RightUpLeg -5.511174021 2.798680386 4.599287461
RightLeg 22.35667777 0 0
RightFoot -15.81605379 20.07234947 -6.126775704
RightToes 2.32829e-010 -1.59028e-015 9.93923e-017
Spine -7.51407 3.94656 12.4929
Spine1 13.8214 4.73415 -4.4139
HEad -8.20261 -4.98025 1.35199
LeftShoulder1 9.93923e-017 0 1.22299e-017
LeftArm 7.05531 54.8469 -68.866
LeftForeArm -15.3483 -12.2028 -3.69852
LeftHand 0.989239 6.97426 -6.78467
RightShoulder 1.98785e-016 -4.96962e-017 1.55301e-017
RightArm 20.9799 -24.6445 83.1853
RightForeArm -44.7933 28.7058 -25.8324
RightHand 1.16563 -10.225 -6.54391
LeftUpLeg -25.80700899 -0.6535292162 4.994640489
LeftLeg 27.44998805 -7.158586213 1.136753259
LeftFoot 5.514034392 -0.2744981254 -8.342702214
LeftToes 8.82235e-011 9.04645e-011 1.87288e-011
436
root 27.62861735 39.1368 22.46368828 171.7511548 -57.12807129 -172.6700685
RightUpLeg -2.878514014 2.643507369 4.408095908
RightLeg 21.92057438 0 0
RightFoot -17.64918236 21.48566794 -6.554319517
RightToes 2.32829e-010 -1.59028e-015 9.93923e-017
Spine -8.09685 4.28993 13.4388
Spine1 14.4793 5.16981 -5.55563
HEad -8.53831 -5.02505 1.2513
LeftShoulder1 9.93923e-017 0 1.22299e-017
LeftArm 3.03309 55.6042 -66.8765
LeftForeArm -11.7008 -10.2295 -4.35487
LeftHand 0.964956 6.70599 -5.97777
RightShoulder 1.98785e-016 -4.96962e-017 1.55301e-017
RightArm 20.1872 -21.9817 82.6238
RightForeArm -44.228 29.6533 -26.5435
RightHand 1.17304 -10.2993 -6.4314
LeftUpLeg -25.23862236 -0.7737604013 4.349157224
LeftLeg 14.98685122 -6.827805347 0.5381089402
LeftFoot 7.241908568 0.3224530932 -7.438339485
LeftToes 8.82235e-011 9.04645e-011 1.87288e-011
437
root 26.29075135 39.0155 21.75580672 172.4103814 -55.72877839 -172.5581175
RightUpLeg -1.132850948 2.578739206 4.168727676
RightLeg 21.77811307 0 0
RightFoot -19.56094827 23.05600085 -7.164729856
RightToes 2.32829e-010 -1.59028e-015 9.93923e-017
Spine -9.55206 4.83757 14.5931
Spine1 15.3412 5.80493 -6.97747
HEad -8.71883 -5.13068 1.30073
LeftShoulder1 9.93923e-017 0 1.22299e-017
LeftArm -0.365423 55.8509 -65.2931
LeftForeArm -9.19698 -8.25998 -4.8776
LeftHand 0.973909 6.82217 -5.55341
RightShoulder 1.98785e-016 -4.96962e-017 1.55301e-017
RightArm 19.5693 -20.2135 82.2798
RightForeArm -44.1874 29.9719 -26.7769
RightHand 1.14635 -10.1704 -6.21836
LeftUpLeg -25.32739348 -0.4856784828 3.591573874
LeftLeg 4.253975203 -6.123341156 0.4280688567
LeftFoot 7.223212971 0.7605225805 -7.384656283
LeftToes 8.82235e-011 9.04645e-011 1.87288e-011
438
root 24.92783225 38.7936 20.97279121 173.1873874 -54.12940638 -172.1185216
RightUpLeg -0.2192777737 2.354097661 3.924683438
RightLeg 22.65464684 0 0
RightFoot -21.51374176 25.03220401 -7.634500433
RightToes 2.32829e-010 -1.59028e-015 9.93923e-017
Spine -11.2292 5.50976 16.0989
Spine1 16.0748 6.49691 -8.38122
HEad -8.96868 -5.25482 1.45882
LeftShoulder1 9.93923e-017 0 1.22299e-017
LeftArm -3.43556 55.6358 -64.3967
LeftForeArm -7.41591 -6.44362 -5.20002
LeftHand 1.00257 7.13443 -5.52391
RightShoulder 1.98785e-016 -4.96962e-017 1.55301e-017
RightArm 19.2962 -19.3455 82.2059
RightForeArm -44.2739 29.6849 -26.5628
RightHand 1.13498 -10.1113 -6.14149
LeftUpLeg -27.34340781 -0.5312956862 3.552197491
LeftLeg 0.2376522738 -3.655530197 0.1750432974
LeftFoot 4.433562373 1.04605967 -8.933400396
LeftToes 8.82235e-011 9.04645e-011 1.87288e-011
439
root 23.84585483 38.606 19.90650359 174.2603424 -53.27288239 -172.375804
RightUpLeg 0.6025489866 1.898151144 3.662448936
RightLeg 24.05746181 0 0
RightFoot -22.35270455 26.77260652 -8.167370367
RightToes 2.32829e-010 -1.59028e-015 9.93923e-017
Spine -12.1546 5.85722 16.6885
Spine1 16.4674 7.00495 -9.47714
HEad -9.44381 -5.42776 1.65421
LeftShoulder1 9.93923e-017 0 1.22299e-017
LeftArm -6.6077 55.0293 -64.3725
LeftForeArm -5.50597 -4.71902 -5.34881
LeftHand 1.0012 7.1207 -5.41116
RightShoulder 1.98785e-016 -4.96962e-017 1.55301e-017
RightArm 19.1526 -19.652 82.4421
RightForeArm -44.4089 28.9425 -26.0225
RightHand 1.15452 -10.207 -6.29791
LeftUpLeg -28.90673569 -0.8388185019 3.097234877
LeftLeg 0.5275046911 -1.278395509 -0.09153852245
LeftFoot 2.025091296 1.098714464 -10.00762218
LeftToes 8.82235e-011 9.04645e-011 1.87288e-011
